# xmcd
#
# Track frame offsets:
# 150
# 16691
# 32393
# 45231
# 61330
# 75844
# 91716
# 105048
# 119308
# 134508
# 147058
# 161946
# 174171
# 186871
# 204158
# 221206
# 234978
# 251983
# 265583
#
# Disc length: 3720 seconds
#
# Revision: 0
# Processed by: cddbd v1.5.2PL0 Copyright (c) Steve Scherf et al.
# Submitted via: CoinsHifi v1.9h contact@coinshifi.com
#
DISCID=e50e8613
DTITLE=fonseca and guaracha and los brillantes - los brillantes
DYEAR=1996
DGENRE=Acoustic
TTITLE0=el borracho
TTITLE1=el rommy
TTITLE2=el marañon
TTITLE3=que rubia
TTITLE4=l mantenido
TTITLE5=el hueso de maria
TTITLE6=esa mujer
TTITLE7=la cinta verde
TTITLE8=como me da la gana
TTITLE9=la tartara
TTITLE10=la suegra
TTITLE11=la mulata
TTITLE12=tranqui
TTITLE13=la trampa
TTITLE14=currucucu
TTITLE15=bonifacio
TTITLE16=chinito fumanchu
TTITLE17=bigote e gato
TTITLE18=chinito champion
EXTD=
EXTT0=Medley
EXTT1=Medley
EXTT2=Medley
EXTT3=Medley
EXTT4=Medley
EXTT5=Medley
EXTT6=Medley
EXTT7=Medley
EXTT8=Medley
EXTT9=Medley
EXTT10=Medley
EXTT11=Medley
EXTT12=Medley
EXTT13=Medley
EXTT14=Medley
EXTT15=Medley
EXTT16=Medley
EXTT17=Medley
EXTT18=Medley
PLAYORDER=
